<svg width="62" height="62" viewBox="0 0 62 62" fill="none" xmlns="http://www.w3.org/2000/svg">
<path d="M12.0376 46.725C14.6584 44.7208 17.5876 43.1406 20.8251 41.9843C24.0626 40.8281 27.4543 40.25 31.0001 40.25C34.5459 40.25 37.9376 40.8281 41.1751 41.9843C44.4126 43.1406 47.3418 44.7208 49.9626 46.725C51.7612 44.618 53.1615 42.2284 54.1636 39.5562C55.1657 36.884 55.6668 34.0319 55.6668 31C55.6668 24.1652 53.2643 18.3454 48.4595 13.5406C43.6546 8.73572 37.8348 6.33329 31.0001 6.33329C24.1654 6.33329 18.3456 8.73572 13.5407 13.5406C8.73585 18.3454 6.33342 24.1652 6.33342 31C6.33342 34.0319 6.83446 36.884 7.83654 39.5562C8.83862 42.2284 10.239 44.618 12.0376 46.725ZM31.0001 34.0833C27.9681 34.0833 25.4115 33.0427 23.3303 30.9614C21.249 28.8802 20.2084 26.3236 20.2084 23.2916C20.2084 20.2597 21.249 17.7031 23.3303 15.6218C25.4115 13.5406 27.9681 12.5 31.0001 12.5C34.032 12.5 36.5886 13.5406 38.6699 15.6218C40.7511 17.7031 41.7918 20.2597 41.7918 23.2916C41.7918 26.3236 40.7511 28.8802 38.6699 30.9614C36.5886 33.0427 34.032 34.0833 31.0001 34.0833ZM31.0001 61.8333C26.7348 61.8333 22.7265 61.0239 18.9751 59.4052C15.2237 57.7864 11.9605 55.5895 9.1855 52.8145C6.4105 50.0395 4.21362 46.7764 2.59487 43.025C0.976123 39.2736 0.166748 35.2652 0.166748 31C0.166748 26.7347 0.976123 22.7263 2.59487 18.975C4.21362 15.2236 6.4105 11.9604 9.1855 9.18538C11.9605 6.41038 15.2237 4.2135 18.9751 2.59475C22.7265 0.976001 26.7348 0.166626 31.0001 0.166626C35.2654 0.166626 39.2737 0.976001 43.0251 2.59475C46.7765 4.2135 50.0397 6.41038 52.8147 9.18538C55.5897 11.9604 57.7865 15.2236 59.4053 18.975C61.024 22.7263 61.8334 26.7347 61.8334 31C61.8334 35.2652 61.024 39.2736 59.4053 43.025C57.7865 46.7764 55.5897 50.0395 52.8147 52.8145C50.0397 55.5895 46.7765 57.7864 43.0251 59.4052C39.2737 61.0239 35.2654 61.8333 31.0001 61.8333ZM31.0001 55.6666C33.7237 55.6666 36.2931 55.2684 38.7084 54.4718C41.1237 53.6753 43.3334 52.5319 45.3376 51.0416C43.3334 49.5513 41.1237 48.4079 38.7084 47.6114C36.2931 46.8149 33.7237 46.4166 31.0001 46.4166C28.2765 46.4166 25.707 46.8149 23.2917 47.6114C20.8765 48.4079 18.6667 49.5513 16.6626 51.0416C18.6667 52.5319 20.8765 53.6753 23.2917 54.4718C25.707 55.2684 28.2765 55.6666 31.0001 55.6666ZM31.0001 27.9166C32.3362 27.9166 33.4411 27.4798 34.3147 26.6062C35.1883 25.7326 35.6251 24.6277 35.6251 23.2916C35.6251 21.9555 35.1883 20.8507 34.3147 19.977C33.4411 19.1034 32.3362 18.6666 31.0001 18.6666C29.664 18.6666 28.5591 19.1034 27.6855 19.977C26.8119 20.8507 26.3751 21.9555 26.3751 23.2916C26.3751 24.6277 26.8119 25.7326 27.6855 26.6062C28.5591 27.4798 29.664 27.9166 31.0001 27.9166Z" fill="#A8E198"/>
</svg>
