<svg width="71" height="64" viewBox="0 0 71 64" fill="none" xmlns="http://www.w3.org/2000/svg">
<path d="M31.9584 32V39C31.9584 39.9917 32.2978 40.8229 32.9766 41.4938C33.6554 42.1646 34.4966 42.5 35.5 42.5C36.5035 42.5 37.3447 42.1646 38.0235 41.4938C38.7023 40.8229 39.0417 39.9917 39.0417 39V32H46.125C47.1285 32 47.9697 31.6646 48.6485 30.9938C49.3273 30.3229 49.6667 29.4917 49.6667 28.5C49.6667 27.5083 49.3273 26.6771 48.6485 26.0063C47.9697 25.3354 47.1285 25 46.125 25H39.0417V18C39.0417 17.0083 38.7023 16.1771 38.0235 15.5062C37.3447 14.8354 36.5035 14.5 35.5 14.5C34.4966 14.5 33.6554 14.8354 32.9766 15.5062C32.2978 16.1771 31.9584 17.0083 31.9584 18V25H24.875C23.8716 25 23.0304 25.3354 22.3516 26.0063C21.6728 26.6771 21.3334 27.5083 21.3334 28.5C21.3334 29.4917 21.6728 30.3229 22.3516 30.9938C23.0304 31.6646 23.8716 32 24.875 32H31.9584ZM7.16671 56.5C5.21879 56.5 3.55126 55.8146 2.1641 54.4438C0.77695 53.0729 0.083374 51.425 0.083374 49.5V7.5C0.083374 5.575 0.77695 3.92708 2.1641 2.55625C3.55126 1.18542 5.21879 0.5 7.16671 0.5H63.8334C65.7813 0.5 67.4488 1.18542 68.836 2.55625C70.2231 3.92708 70.9167 5.575 70.9167 7.5V49.5C70.9167 51.425 70.2231 53.0729 68.836 54.4438C67.4488 55.8146 65.7813 56.5 63.8334 56.5H49.6667V60C49.6667 60.9917 49.3273 61.8229 48.6485 62.4937C47.9697 63.1646 47.1285 63.5 46.125 63.5H24.875C23.8716 63.5 23.0304 63.1646 22.3516 62.4937C21.6728 61.8229 21.3334 60.9917 21.3334 60V56.5H7.16671ZM7.16671 49.5H63.8334V7.5H7.16671V49.5Z" fill="#7B9D71"/>
</svg>
