<svg width="72" height="72" viewBox="0 0 72 72" fill="none" xmlns="http://www.w3.org/2000/svg">
<path d="M62.2396 69.1677L50.5521 57.7052L47.8959 65.6677C47.6007 66.4844 47.04 66.8781 46.2136 66.849C45.3872 66.8198 44.8264 66.3969 44.5313 65.5802L36.474 39.0677C36.2379 38.4261 36.3855 37.8427 36.9167 37.3177C37.448 36.7927 38.0382 36.6469 38.6875 36.8802L65.5157 44.8427C66.3421 45.1344 66.77 45.6886 66.7995 46.5052C66.829 47.3219 66.4306 47.8761 65.6042 48.1677L57.5469 50.7927L69.2344 62.3427C70.2379 63.3344 70.7396 64.4719 70.7396 65.7552C70.7396 67.0386 70.2379 68.1761 69.2344 69.1677C68.2309 70.1594 67.0651 70.6552 65.737 70.6552C64.4089 70.6552 63.2431 70.1594 62.2396 69.1677ZM35.5 7.91772C27.5903 7.91772 20.8907 10.6302 15.4011 16.0552C9.9115 21.4802 7.16671 28.1011 7.16671 35.9177C7.16671 43.2677 9.61636 49.5677 14.5157 54.8177C19.415 60.0677 25.5539 63.0427 32.9323 63.7427C33.9358 63.8594 34.8065 64.2969 35.5443 65.0552C36.2822 65.8136 36.6216 66.6886 36.5625 67.6802C36.5035 68.6719 36.1346 69.4886 35.4558 70.1302C34.777 70.7719 33.9358 71.0636 32.9323 71.0052C28.3282 70.7136 24.0339 69.5761 20.0495 67.5927C16.0651 65.6094 12.5825 63.0281 9.6016 59.849C6.6207 56.6698 4.2891 53.024 2.60681 48.9115C0.92452 44.799 0.083374 40.4677 0.083374 35.9177C0.083374 31.0761 1.01306 26.5261 2.87244 22.2677C4.73181 18.0094 7.25525 14.3052 10.4427 11.1552C13.6302 8.00522 17.3785 5.51147 21.6875 3.67397C25.9966 1.83647 30.6007 0.917725 35.5 0.917725C44.7674 0.917725 52.8395 4.03856 59.7162 10.2802C66.5929 16.5219 70.3559 24.2219 71.0052 33.3802C71.1233 34.3136 70.8429 35.1156 70.1641 35.7865C69.4853 36.4573 68.6441 36.8219 67.6407 36.8802C66.6372 36.9386 65.737 36.6177 64.9401 35.9177C64.1433 35.2177 63.6858 34.3719 63.5678 33.3802C62.6823 26.3802 59.5981 20.3865 54.3151 15.399C49.0322 10.4115 42.7605 7.91772 35.5 7.91772Z" fill="#7B9D71"/>
</svg>
