<svg width="71" height="64" viewBox="0 0 71 64" fill="none" xmlns="http://www.w3.org/2000/svg">
<path d="M7.16671 53C5.21879 53 3.55126 52.3146 2.1641 50.9438C0.77695 49.5729 0.083374 47.925 0.083374 46V7.5C0.083374 5.575 0.77695 3.92708 2.1641 2.55625C3.55126 1.18542 5.21879 0.5 7.16671 0.5H31.9584C32.9618 0.5 33.803 0.835417 34.4818 1.50625C35.1606 2.17708 35.5 3.00833 35.5 4C35.5 4.99167 35.1606 5.82292 34.4818 6.49375C33.803 7.16458 32.9618 7.5 31.9584 7.5H7.16671V46H63.8334V39C63.8334 38.0083 64.1728 37.1771 64.8516 36.5063C65.5304 35.8354 66.3716 35.5 67.375 35.5C68.3785 35.5 69.2197 35.8354 69.8985 36.5063C70.5773 37.1771 70.9167 38.0083 70.9167 39V46C70.9167 47.925 70.2231 49.5729 68.836 50.9438C67.4488 52.3146 65.7813 53 63.8334 53H53.2084L55.6875 55.45C56.0417 55.8 56.3073 56.1938 56.4844 56.6313C56.6615 57.0688 56.75 57.5208 56.75 57.9875V60C56.75 60.9917 56.4106 61.8229 55.7318 62.4937C55.053 63.1646 54.2118 63.5 53.2084 63.5H17.7917C16.7882 63.5 15.9471 63.1646 15.2683 62.4937C14.5895 61.8229 14.25 60.9917 14.25 60V57.9875C14.25 57.5208 14.3386 57.0688 14.5157 56.6313C14.6928 56.1938 14.9584 55.8 15.3125 55.45L17.7917 53H7.16671ZM42.5834 29.1125V4C42.5834 3.00833 42.9228 2.17708 43.6016 1.50625C44.2804 0.835417 45.1216 0.5 46.125 0.5C47.1285 0.5 47.9697 0.835417 48.6485 1.50625C49.3273 2.17708 49.6667 3.00833 49.6667 4V29.1125L56.3959 22.55C57.0452 21.9083 57.8568 21.5729 58.8308 21.5438C59.8047 21.5146 60.6459 21.85 61.3542 22.55C62.0035 23.1917 62.3282 24.0083 62.3282 25C62.3282 25.9917 62.0035 26.8083 61.3542 27.45L46.125 42.5L30.8959 27.45C30.2466 26.8083 29.9072 26.0063 29.8776 25.0438C29.8481 24.0813 30.1875 23.25 30.8959 22.55C31.5452 21.9083 32.3716 21.5875 33.375 21.5875C34.3785 21.5875 35.2049 21.9083 35.8542 22.55L42.5834 29.1125Z" fill="#7B9D71"/>
</svg>
