<?xml version="1.0" encoding="UTF-8"?>
<svg id="Layer_2" data-name="Layer 2" xmlns="http://www.w3.org/2000/svg" viewBox="0 0 793.43 440.13">
  <defs>
    <style>
      .cls-1 {
        fill: #a8e198;
      }
    </style>
  </defs>
  <g id="Layer_1-2" data-name="Layer 1">
    <g>
      <path class="cls-1" d="M51.89,181.35L0,.02H41.88l30.02,126h1.5L106.52,.02h35.86l33.03,126.26h1.59L207.01,.02h41.88l-51.89,181.34h-37.36L125.11,62.79h-1.42l-34.44,118.56H51.89Z"/>
      <path class="cls-1" d="M292.72,183.92c-8.68,0-16.41-1.52-23.2-4.56-6.79-3.04-12.15-7.56-16.07-13.55-3.93-5.99-5.89-13.47-5.89-22.45,0-7.56,1.38-13.9,4.16-19.04,2.77-5.14,6.55-9.27,11.33-12.4,4.78-3.13,10.23-5.49,16.34-7.08,6.11-1.59,12.53-2.71,19.26-3.36,7.91-.83,14.29-1.61,19.13-2.35,4.84-.74,8.35-1.84,10.54-3.32,2.18-1.47,3.28-3.66,3.28-6.55v-.53c0-5.61-1.76-9.95-5.27-13.02-3.51-3.07-8.49-4.6-14.92-4.6-6.79,0-12.19,1.49-16.2,4.47s-6.67,6.71-7.97,11.2l-34.89-2.83c1.77-8.26,5.25-15.42,10.45-21.47,5.19-6.05,11.91-10.71,20.14-13.99,8.23-3.28,17.78-4.91,28.64-4.91,7.56,0,14.8,.89,21.74,2.66,6.93,1.77,13.1,4.52,18.51,8.23s9.67,8.49,12.79,14.3c3.13,5.81,4.69,12.76,4.69,20.85v91.73h-35.77v-18.86h-1.06c-2.18,4.25-5.11,7.98-8.77,11.2-3.66,3.22-8.06,5.73-13.19,7.52-5.14,1.8-11.07,2.7-17.8,2.7Zm10.8-26.03c5.55,0,10.45-1.11,14.7-3.32,4.25-2.21,7.58-5.21,10.01-8.99,2.42-3.78,3.63-8.06,3.63-12.84v-14.43c-1.18,.77-2.79,1.46-4.83,2.08-2.04,.62-4.33,1.18-6.86,1.68-2.54,.5-5.08,.94-7.61,1.33-2.54,.38-4.84,.72-6.91,1.02-4.43,.65-8.29,1.68-11.6,3.1-3.31,1.42-5.87,3.32-7.7,5.71-1.83,2.39-2.74,5.36-2.74,8.9,0,5.14,1.87,9.05,5.62,11.73,3.75,2.69,8.51,4.03,14.3,4.03Z"/>
      <path class="cls-1" d="M541.27,179.66c-1.9,.59-4.57,1.28-7.97,2.08-3.43,.8-7.58,1.28-12.5,1.49-9.07,.35-17.04-.87-23.86-3.64-6.82-2.77-12.12-7.1-15.9-12.95-3.77-5.82-5.64-13.19-5.58-22.13V73.69h-18.6v-28.33h18.6V12.78h37.71V45.37h25.59v28.33h-25.59v65.87c0,3.5,.55,6.2,1.59,8.1,1.07,1.9,2.56,3.26,4.47,4.02,1.94,.76,4.16,1.18,6.68,1.18,1.8,0,3.57-.17,5.33-.52,1.77-.31,3.12-.55,4.05-.73l5.96,28.05Z"/>
      <path class="cls-1" d="M686.3,123.01v-10.35c0-11.57-1.63-21.68-4.88-30.34-3.26-8.66-7.76-15.83-13.58-21.57-5.82-5.71-12.61-10.01-20.36-12.88-7.79-2.84-16.14-4.29-25.11-4.29-13.37,0-24.97,2.98-34.84,8.87-9.9,5.92-17.56,14.13-22.99,24.69-5.44,10.6-8.14,22.86-8.14,36.85s2.7,26.77,8.14,37.23c5.44,10.49,13.19,18.56,23.24,24.28,10.08,5.68,22.09,8.55,36.08,8.55,11.22,0,21.12-1.73,29.71-5.19,8.59-3.46,15.62-8.31,21.09-14.51,5.44-6.23,9.07-13.54,10.84-21.92l-34.91-2.32c-1.28,3.43-3.19,6.34-5.64,8.69-2.49,2.35-5.47,4.12-8.97,5.3-3.46,1.18-7.31,1.77-11.5,1.77-6.3,0-11.77-1.32-16.38-3.98-4.61-2.63-8.17-6.41-10.67-11.32-2.49-4.88-3.77-10.7-3.77-17.45v-.07h92.64Zm-88.83-36.81c2.49-4.36,5.92-7.9,10.32-10.53,4.4-2.63,9.45-3.95,15.2-3.95s10.32,1.21,14.48,3.6,7.41,5.68,9.77,9.87c2.35,4.19,3.53,9,3.53,14.44h-57.07c.24-4.88,1.52-9.35,3.77-13.44Z"/>
      <path class="cls-1" d="M710.91,181.35V45.35h36.57v23.73h1.42c2.48-8.44,6.64-14.83,12.49-19.17,5.84-4.34,12.57-6.51,20.19-6.51,1.89,0,3.93,.12,6.11,.36,2.18,.24,4.1,.56,5.75,.97v33.47c-1.77-.53-4.22-1-7.35-1.42s-5.99-.62-8.59-.62c-5.55,0-10.49,1.2-14.83,3.59s-7.76,5.71-10.27,9.96c-2.51,4.25-3.76,9.15-3.76,14.7v76.94h-37.72Z"/>
      <path class="cls-1" d="M51.89,389.13L0,207.8H41.88l30.02,126h1.5l33.12-126h35.86l33.03,126.26h1.59l30.02-126.26h41.88l-51.89,181.34h-37.36l-34.53-118.56h-1.42l-34.44,118.56H51.89Z"/>
      <path class="cls-1" d="M292.72,391.7c-8.68,0-16.41-1.52-23.2-4.56-6.79-3.04-12.15-7.56-16.07-13.55-3.93-5.99-5.89-13.47-5.89-22.45,0-7.56,1.38-13.9,4.16-19.04,2.77-5.14,6.55-9.27,11.33-12.4,4.78-3.13,10.23-5.49,16.34-7.08,6.11-1.59,12.53-2.71,19.26-3.36,7.91-.83,14.29-1.61,19.13-2.35,4.84-.74,8.35-1.84,10.54-3.32,2.18-1.47,3.28-3.66,3.28-6.55v-.53c0-5.61-1.76-9.95-5.27-13.02-3.51-3.07-8.49-4.6-14.92-4.6-6.79,0-12.19,1.49-16.2,4.47s-6.67,6.71-7.97,11.2l-34.89-2.83c1.77-8.26,5.25-15.42,10.45-21.47,5.19-6.05,11.91-10.71,20.14-13.99,8.23-3.28,17.78-4.91,28.64-4.91,7.56,0,14.8,.89,21.74,2.66,6.93,1.77,13.1,4.52,18.51,8.23s9.67,8.49,12.79,14.3c3.13,5.81,4.69,12.76,4.69,20.85v91.73h-35.77v-18.86h-1.06c-2.18,4.25-5.11,7.98-8.77,11.2-3.66,3.22-8.06,5.73-13.19,7.52-5.14,1.8-11.07,2.7-17.8,2.7Zm10.8-26.03c5.55,0,10.45-1.11,14.7-3.32,4.25-2.21,7.58-5.21,10.01-8.99,2.42-3.78,3.63-8.06,3.63-12.84v-14.43c-1.18,.77-2.79,1.46-4.83,2.08-2.04,.62-4.33,1.18-6.86,1.68-2.54,.5-5.08,.94-7.61,1.33-2.54,.38-4.84,.72-6.91,1.02-4.43,.65-8.29,1.68-11.6,3.1-3.31,1.42-5.87,3.32-7.7,5.71-1.83,2.39-2.74,5.36-2.74,8.9,0,5.14,1.87,9.05,5.62,11.73,3.75,2.69,8.51,4.03,14.3,4.03Z"/>
      <rect class="cls-1" x="398.63" width="37.71" height="389.14"/>
      <path class="cls-1" d="M504.16,207.8v181.34h-37.72V207.8h37.72Z"/>
      <path class="cls-1" d="M557.55,440.13c-4.78,0-9.25-.37-13.42-1.11-4.16-.74-7.6-1.67-10.31-2.79l8.5-28.16c4.43,1.36,8.43,2.1,12,2.21,3.57,.12,6.67-.71,9.3-2.48,2.63-1.77,4.77-4.78,6.42-9.03l2.22-5.76-48.79-139.9h39.67l28.16,99.88h1.42l28.42-99.88h39.93l-52.86,150.7c-2.54,7.32-5.98,13.71-10.31,19.17-4.34,5.46-9.82,9.68-16.43,12.66-6.61,2.98-14.58,4.47-23.91,4.47Z"/>
    </g>
  </g>
</svg>